<svg xmlns="http://www.w3.org/2000/svg" viewBox="0 0 64 64" id="technical-support"><g><path fill="#168fd6" d="M53,33.41v5.18a1.71994,1.71994,0,0,1-1.72,1.72H48.24a20.648,20.648,0,0,1-2.89,6.95l2.16,2.15a1.73229,1.73229,0,0,1,0,2.44l-3.66,3.66a1.73229,1.73229,0,0,1-2.44,0l-2.15-2.16a20.64869,20.64869,0,0,1-6.95,2.89v3.04A1.71994,1.71994,0,0,1,30.59,61H25.41a1.71994,1.71994,0,0,1-1.72-1.72V56.24a20.64869,20.64869,0,0,1-6.95-2.89l-2.15,2.16a1.73229,1.73229,0,0,1-2.44,0L8.49,51.85a1.73229,1.73229,0,0,1,0-2.44l2.16-2.15a20.648,20.648,0,0,1-2.89-6.95H4.72A1.71994,1.71994,0,0,1,3,38.59V33.41a1.71988,1.71988,0,0,1,1.72-1.72H7.76a20.647,20.647,0,0,1,2.89-6.95L8.49,22.59a1.73229,1.73229,0,0,1,0-2.44l3.66-3.66a1.73229,1.73229,0,0,1,2.44,0l2.15,2.16a20.64858,20.64858,0,0,1,6.95-2.89V12.72A1.71988,1.71988,0,0,1,25.41,11H30.59a1.71988,1.71988,0,0,1,1.72,1.72v3.04a20.60164,20.60164,0,0,1,6.95,2.89l2.15-2.16a1.73229,1.73229,0,0,1,2.44,0l3.66,3.66a1.73229,1.73229,0,0,1,0,2.44l-2.16,2.15a20.68806,20.68806,0,0,1,2.89,6.95h3.04A1.71988,1.71988,0,0,1,53,33.41Z"></path><path d="M28.01465,53c-1.02572-.10036-3.02154.277-2.94927-1.2524C25.335,50.33,27.01607,51.1211,28,51A1.00024,1.00024,0,0,1,28.01465,53Zm3.8789-.51025a1.00276,1.00276,0,0,1-.25775-1.96632c.9807-.13654,2.40836-1.34836,3.039-.04934C35.17081,51.96587,32.886,52.20579,31.89355,52.48975Zm-9.61914-.62061a8.13464,8.13464,0,0,1-2.25979-1.0009.99989.99989,0,0,1-.36618-1.36629c.79475-1.20995,2.05171.18191,3.00781.44234A1.00394,1.00394,0,0,1,22.27441,51.86914ZM37.1377,49.89648a1.00643,1.00643,0,0,1-.6103-1.793c.85284-.49967,1.70994-2.16965,2.79-1.20852a.99967.99967,0,0,1,0,1.41409C38.64755,48.86179,38.0324,49.77223,37.1377,49.89648ZM17.40723,48.62061c-.95367-.11116-1.46448-1.21849-2.088-1.86024a1.00152,1.00152,0,0,1,.18075-1.403c1.19852-.81637,1.83.95,2.6133,1.55513A1.00682,1.00682,0,0,1,17.40723,48.62061Zm23.58593-3.12256a1.00645,1.00645,0,0,1-.8652-1.5005c.60094-.7938.75266-2.65509,2.11812-2.18264a.9999.9999,0,0,1,.541,1.30716C42.32356,43.92666,42.09924,45.41487,40.99316,45.49805Zm-26.8457-1.73291c-1.19694-.08094-1.2322-1.71116-1.59972-2.59562a1.00072,1.00072,0,0,1,.70519-1.22616c1.414-.29167,1.32808,1.57743,1.81741,2.43649A1.00521,1.00521,0,0,1,14.14746,43.76514ZM42.875,39.957a1.00274,1.00274,0,0,1-.99316-1.12842c.2463-.96137-.31963-2.75744,1.11814-2.85745A.9785.9785,0,0,1,44,37C43.8877,37.99006,44.28555,39.86147,42.875,39.957ZM13.001,38.01465a.98734.98734,0,0,1-1-.98535h1l-1-.002c.09912-1.03163-.28174-3.01341,1.247-2.9478a1.00069,1.00069,0,0,1,.86625,1.11821C13.87424,36.15588,14.43269,37.924,13.001,38.01465ZM42.47754,34.064c-1.21309-.04989-1.06921-1.66292-1.55868-2.46869a1.00052,1.00052,0,0,1,.53719-1.30865c1.45436-.47887,1.62531,1.56182,1.98735,2.51459A1.00426,1.00426,0,0,1,42.47754,34.064ZM14.126,32.28809a1.00618,1.00618,0,0,1-.92479-1.38234c.48035-.89728.90466-2.9056,2.289-2.24614a1.00005,1.00005,0,0,1,.36818,1.36529C15.28173,30.74541,15.24328,32.23932,14.126,32.28809Zm25.74511-3.46c-.93937-.069-1.30667-1.24448-2.005-1.75965a1.00045,1.00045,0,0,1-.00382-1.41466c1.16245-.99694,2.09666.822,2.79787,1.56145A1.00646,1.00646,0,0,1,39.87109,28.82812ZM17.36914,27.418a1.00666,1.00666,0,0,1-.70894-1.70509c.78536-.64794,1.945-2.33959,2.97164-1.20269a1.00065,1.00065,0,0,1-.18164,1.4029C18.72294,26.33122,18.24,27.33288,17.36914,27.418ZM35.459,24.98438a16.614,16.614,0,0,1-2.14066-.93887.99989.99989,0,0,1-.54488-1.30479c.69471-1.3671,2.25264-.04216,3.18455.3764A1.00579,1.00579,0,0,1,35.459,24.98438Zm-13.2373-.83057a1.00393,1.00393,0,0,1-.38569-1.92335c.97515-.29906,2.68861-1.41465,3.207.02681a1.00059,1.00059,0,0,1-.70511,1.22613C23.61487,23.62765,22.94255,24.03652,22.22168,24.15381Zm7.69238-1.03272c-.97544-.24655-2.83071.33583-2.93558-1.121.09277-1.53082,2.09258-.89259,3.06153-.87071A1.00129,1.00129,0,0,1,29.91406,23.12109Z" opacity=".1"></path><path fill="#ccdde7" d="M28.01465,52c-1.02572-.10036-3.02154.277-2.94927-1.2524C25.335,49.33,27.01607,50.1211,28,50A1.00024,1.00024,0,0,1,28.01465,52Zm3.8789-.51025a1.00276,1.00276,0,0,1-.25775-1.96632c.9807-.13654,2.40836-1.34836,3.039-.04934C35.17081,50.96587,32.886,51.20579,31.89355,51.48975Zm-9.61914-.62061a8.13464,8.13464,0,0,1-2.25979-1.0009.99989.99989,0,0,1-.36618-1.36629c.79475-1.20995,2.05171.18191,3.00781.44234A1.00394,1.00394,0,0,1,22.27441,50.86914ZM37.1377,48.89648a1.00643,1.00643,0,0,1-.6103-1.793c.85284-.49967,1.70994-2.16965,2.79-1.20852a.99967.99967,0,0,1,0,1.41409C38.64755,47.86179,38.0324,48.77223,37.1377,48.89648ZM17.40723,47.62061c-.95367-.11116-1.46448-1.21849-2.088-1.86024a1.00152,1.00152,0,0,1,.18075-1.403c1.19852-.81637,1.83.95,2.6133,1.55513A1.00682,1.00682,0,0,1,17.40723,47.62061Zm23.58593-3.12256a1.00645,1.00645,0,0,1-.8652-1.5005c.60094-.7938.75266-2.65509,2.11812-2.18264a.9999.9999,0,0,1,.541,1.30716C42.32356,42.92666,42.09924,44.41487,40.99316,44.49805Zm-26.8457-1.73291c-1.19694-.08094-1.2322-1.71116-1.59972-2.59562a1.00072,1.00072,0,0,1,.70519-1.22616c1.414-.29167,1.32808,1.57743,1.81741,2.43649A1.00521,1.00521,0,0,1,14.14746,42.76514ZM42.875,38.957a1.00274,1.00274,0,0,1-.99316-1.12842c.2463-.96137-.31963-2.75744,1.11814-2.85745A.9785.9785,0,0,1,44,36C43.8877,36.99006,44.28555,38.86147,42.875,38.957ZM13.001,37.01465a.98734.98734,0,0,1-1-.98535h1l-1-.002c.09912-1.03163-.28174-3.01341,1.247-2.9478a1.00069,1.00069,0,0,1,.86625,1.11821C13.87424,35.15588,14.43269,36.924,13.001,37.01465ZM42.47754,33.064c-1.21309-.04989-1.06921-1.66292-1.55868-2.46869a1.00052,1.00052,0,0,1,.53719-1.30865c1.45436-.47887,1.62531,1.56182,1.98735,2.51459A1.00426,1.00426,0,0,1,42.47754,33.064ZM14.126,31.28809a1.00618,1.00618,0,0,1-.92479-1.38234c.48035-.89728.90466-2.9056,2.289-2.24614a1.00005,1.00005,0,0,1,.36818,1.36529C15.28173,29.74541,15.24328,31.23932,14.126,31.28809Zm25.74511-3.46c-.93937-.069-1.30667-1.24448-2.005-1.75965a1.00045,1.00045,0,0,1-.00382-1.41466c1.16245-.99694,2.09666.822,2.79787,1.56145A1.00646,1.00646,0,0,1,39.87109,27.82812ZM17.36914,26.418a1.00666,1.00666,0,0,1-.70894-1.70509c.78536-.64794,1.945-2.33959,2.97164-1.20269a1.00065,1.00065,0,0,1-.18164,1.4029C18.72294,25.33122,18.24,26.33288,17.36914,26.418ZM35.459,23.98438a16.614,16.614,0,0,1-2.14066-.93887.99989.99989,0,0,1-.54488-1.30479c.69471-1.3671,2.25264-.04216,3.18455.3764A1.00579,1.00579,0,0,1,35.459,23.98438Zm-13.2373-.83057a1.00393,1.00393,0,0,1-.38569-1.92335c.97515-.29906,2.68861-1.41465,3.207.02681a1.00059,1.00059,0,0,1-.70511,1.22613C23.61487,22.62765,22.94255,23.03652,22.22168,23.15381Zm7.69238-1.03272c-.97544-.24655-2.83071.33583-2.93558-1.121.09277-1.53082,2.09258-.89259,3.06153-.87071A1.00129,1.00129,0,0,1,29.91406,22.12109Z"></path><path d="M47.51,22.59l-2.16,2.15a20.78084,20.78084,0,0,1,1.36,2.44l-.55.55a2.00369,2.00369,0,0,1-2.83,0l-1.42-1.41L27.18,41.05v2.83L22.23,46,19.4,43.17l2.12-4.95h2.83L39.09,23.49l-1.42-1.42a1.9918,1.9918,0,0,1,0-2.82l.98-.98c.21.12.41.25.61.38l2.15-2.16a1.73229,1.73229,0,0,1,2.44,0l3.66,3.66A1.73229,1.73229,0,0,1,47.51,22.59Z" opacity=".1"></path><polygon fill="#fff" points="27.18 39.648 44.151 22.678 41.322 19.849 24.352 36.82 21.523 36.82 19.402 41.77 22.23 44.598 27.18 42.477 27.18 39.648"></polygon><rect width="12" height="24.163" x="43.043" y="2.876" fill="#044388" rx="2" transform="rotate(45 49.043 14.957)"></rect><path fill="#fff" d="M44,21a1.00675,1.00675,0,0,1-.707-1.707L53.89941,8.686a.99989.99989,0,0,1,1.41407,1.41406L44.707,20.707A.99676.99676,0,0,1,44,21Z"></path></g></svg>